<svg
      version="1.0"
      xmlns="http://www.w3.org/2000/svg"
      width="48"
      height="48"
      viewBox="0 0 500.000000 500.000000"
      preserveAspectRatio="xMidYMid meet"
    >
      <g
        transform="translate(0.000000,500.000000) scale(0.100000,-0.100000)"
        fill="hsl(24.6 95% 53.1%)"
        stroke="none"
      >
        <path
          d="M2330 4994 c-19 -2 -80 -9 -135 -15 -132 -14 -343 -61 -485 -108
-915 -306 -1574 -1113 -1692 -2071 -16 -135 -16 -465 0 -600 141 -1140 1042
-2041 2182 -2182 135 -16 465 -16 600 0 1140 141 2041 1042 2182 2182 16 135
16 465 0 600 -139 1126 -1021 2022 -2142 2176 -103 14 -442 26 -510 18z m562
-965 c388 -27 698 -109 801 -213 60 -59 172 -198 231 -285 l57 -84 202 2 c111
1 210 -1 220 -5 32 -12 47 -58 47 -144 0 -95 -18 -143 -58 -159 -15 -6 -67
-18 -117 -27 -49 -9 -93 -18 -97 -20 -4 -3 2 -26 13 -52 174 -402 217 -869
113 -1228 -21 -75 -24 -103 -24 -263 0 -191 -8 -238 -43 -246 -12 -3 -107 -4
-212 -3 l-190 3 -15 30 c-10 21 -16 75 -18 188 l-4 157 -29 0 c-15 0 -72 -4
-126 -10 -398 -39 -539 -45 -1148 -44 -545 0 -639 2 -880 22 -148 13 -304 26
-347 29 l-76 6 -4 -171 c-4 -230 16 -213 -242 -210 l-201 3 -14 30 c-11 22
-16 80 -19 215 -3 153 -8 202 -27 283 -44 176 -58 307 -52 467 9 234 56 452
146 681 22 58 41 108 41 111 0 3 -44 13 -98 22 -53 10 -108 23 -121 29 -35 18
-51 66 -51 157 0 86 15 132 47 144 9 4 107 6 217 5 l200 -1 52 75 c76 110 194
256 242 299 23 21 63 48 90 62 121 61 434 127 687 145 179 12 633 12 807 0z"
        />
        <path
          d="M2250 3883 c-313 -12 -649 -72 -781 -138 -102 -52 -322 -352 -460
-626 -40 -82 -47 -101 -34 -105 26 -10 503 3 820 22 408 25 995 25 1405 0 387
-23 830 -32 830 -17 0 18 -97 207 -157 305 -80 129 -211 301 -279 367 -52 49
-71 60 -154 87 -265 86 -695 124 -1190 105z"
        />
        <path
          d="M1125 2771 c-88 -23 -171 -96 -193 -170 -55 -182 64 -351 248 -351
112 0 197 56 243 159 39 88 10 227 -60 292 -61 58 -167 89 -238 70z"
        />
        <path
          d="M3757 2769 c-91 -22 -159 -85 -192 -178 -33 -93 -5 -201 70 -270 56
-52 103 -71 175 -71 107 0 193 51 243 145 30 57 30 173 0 231 -25 47 -92 110
-137 129 -45 19 -115 25 -159 14z"
        />
      </g>
    </svg>